<svg xmlns="http://www.w3.org/2000/svg" width="1200" height="800" viewBox="0 0 1200 800">
<rect width="100%" height="100%" fill="white"/>
<line x1="150.0" y1="100.0" x2="150.0" y2="50.0" stroke="#000" stroke-width="1"/>
<line x1="150.0" y1="100.0" x2="106.7" y2="125.0" stroke="#000" stroke-width="1"/>
<line x1="150.0" y1="100.0" x2="193.3" y2="125.0" stroke="#000" stroke-width="1"/>
<line x1="150.0" y1="50.0" x2="106.7" y2="75.0" stroke="#000" stroke-width="1"/>
<line x1="150.0" y1="50.0" x2="193.3" y2="75.0" stroke="#000" stroke-width="1"/>
<line x1="106.7" y1="125.0" x2="106.7" y2="75.0" stroke="#000" stroke-width="1"/>
<line x1="106.7" y1="125.0" x2="150.0" y2="150.0" stroke="#000" stroke-width="1"/>
<line x1="106.7" y1="75.0" x2="150.0" y2="100.0" stroke="#000" stroke-width="1"/>
<line x1="193.3" y1="125.0" x2="193.3" y2="75.0" stroke="#000" stroke-width="1"/>
<line x1="193.3" y1="125.0" x2="150.0" y2="150.0" stroke="#000" stroke-width="1"/>
<line x1="193.3" y1="75.0" x2="150.0" y2="100.0" stroke="#000" stroke-width="1"/>
<line x1="150.0" y1="150.0" x2="150.0" y2="100.0" stroke="#000" stroke-width="1"/>
<text x="150.0" y="190.0" font-size="14" text-anchor="middle" fill="#111">Cubic P</text>
<line x1="450.0" y1="100.0" x2="450.0" y2="50.0" stroke="#000" stroke-width="1"/>
<line x1="450.0" y1="100.0" x2="406.7" y2="125.0" stroke="#000" stroke-width="1"/>
<line x1="450.0" y1="100.0" x2="493.3" y2="125.0" stroke="#000" stroke-width="1"/>
<line x1="450.0" y1="50.0" x2="406.7" y2="75.0" stroke="#000" stroke-width="1"/>
<line x1="450.0" y1="50.0" x2="493.3" y2="75.0" stroke="#000" stroke-width="1"/>
<line x1="406.7" y1="125.0" x2="406.7" y2="75.0" stroke="#000" stroke-width="1"/>
<line x1="406.7" y1="125.0" x2="450.0" y2="150.0" stroke="#000" stroke-width="1"/>
<line x1="406.7" y1="75.0" x2="450.0" y2="100.0" stroke="#000" stroke-width="1"/>
<line x1="493.3" y1="125.0" x2="493.3" y2="75.0" stroke="#000" stroke-width="1"/>
<line x1="493.3" y1="125.0" x2="450.0" y2="150.0" stroke="#000" stroke-width="1"/>
<line x1="493.3" y1="75.0" x2="450.0" y2="100.0" stroke="#000" stroke-width="1"/>
<line x1="450.0" y1="150.0" x2="450.0" y2="100.0" stroke="#000" stroke-width="1"/>
<text x="450.0" y="190.0" font-size="14" text-anchor="middle" fill="#111">Cubic I</text>
<line x1="750.0" y1="100.0" x2="750.0" y2="50.0" stroke="#000" stroke-width="1"/>
<line x1="750.0" y1="100.0" x2="706.7" y2="125.0" stroke="#000" stroke-width="1"/>
<line x1="750.0" y1="100.0" x2="793.3" y2="125.0" stroke="#000" stroke-width="1"/>
<line x1="750.0" y1="50.0" x2="706.7" y2="75.0" stroke="#000" stroke-width="1"/>
<line x1="750.0" y1="50.0" x2="793.3" y2="75.0" stroke="#000" stroke-width="1"/>
<line x1="706.7" y1="125.0" x2="706.7" y2="75.0" stroke="#000" stroke-width="1"/>
<line x1="706.7" y1="125.0" x2="750.0" y2="150.0" stroke="#000" stroke-width="1"/>
<line x1="706.7" y1="75.0" x2="750.0" y2="100.0" stroke="#000" stroke-width="1"/>
<line x1="793.3" y1="125.0" x2="793.3" y2="75.0" stroke="#000" stroke-width="1"/>
<line x1="793.3" y1="125.0" x2="750.0" y2="150.0" stroke="#000" stroke-width="1"/>
<line x1="793.3" y1="75.0" x2="750.0" y2="100.0" stroke="#000" stroke-width="1"/>
<line x1="750.0" y1="150.0" x2="750.0" y2="100.0" stroke="#000" stroke-width="1"/>
<text x="750.0" y="190.0" font-size="14" text-anchor="middle" fill="#111">Cubic F</text>
<line x1="1050.0" y1="100.0" x2="1050.0" y2="50.0" stroke="#000" stroke-width="1"/>
<line x1="1050.0" y1="100.0" x2="1006.7" y2="125.0" stroke="#000" stroke-width="1"/>
<line x1="1050.0" y1="100.0" x2="1093.3" y2="125.0" stroke="#000" stroke-width="1"/>
<line x1="1050.0" y1="50.0" x2="1006.7" y2="75.0" stroke="#000" stroke-width="1"/>
<line x1="1050.0" y1="50.0" x2="1093.3" y2="75.0" stroke="#000" stroke-width="1"/>
<line x1="1006.7" y1="125.0" x2="1006.7" y2="75.0" stroke="#000" stroke-width="1"/>
<line x1="1006.7" y1="125.0" x2="1050.0" y2="150.0" stroke="#000" stroke-width="1"/>
<line x1="1006.7" y1="75.0" x2="1050.0" y2="100.0" stroke="#000" stroke-width="1"/>
<line x1="1093.3" y1="125.0" x2="1093.3" y2="75.0" stroke="#000" stroke-width="1"/>
<line x1="1093.3" y1="125.0" x2="1050.0" y2="150.0" stroke="#000" stroke-width="1"/>
<line x1="1093.3" y1="75.0" x2="1050.0" y2="100.0" stroke="#000" stroke-width="1"/>
<line x1="1050.0" y1="150.0" x2="1050.0" y2="100.0" stroke="#000" stroke-width="1"/>
<text x="1050.0" y="190.0" font-size="14" text-anchor="middle" fill="#111">Tetragonal P</text>
<line x1="150.0" y1="300.0" x2="150.0" y2="250.0" stroke="#000" stroke-width="1"/>
<line x1="150.0" y1="300.0" x2="106.7" y2="325.0" stroke="#000" stroke-width="1"/>
<line x1="150.0" y1="300.0" x2="193.3" y2="325.0" stroke="#000" stroke-width="1"/>
<line x1="150.0" y1="250.0" x2="106.7" y2="275.0" stroke="#000" stroke-width="1"/>
<line x1="150.0" y1="250.0" x2="193.3" y2="275.0" stroke="#000" stroke-width="1"/>
<line x1="106.7" y1="325.0" x2="106.7" y2="275.0" stroke="#000" stroke-width="1"/>
<line x1="106.7" y1="325.0" x2="150.0" y2="350.0" stroke="#000" stroke-width="1"/>
<line x1="106.7" y1="275.0" x2="150.0" y2="300.0" stroke="#000" stroke-width="1"/>
<line x1="193.3" y1="325.0" x2="193.3" y2="275.0" stroke="#000" stroke-width="1"/>
<line x1="193.3" y1="325.0" x2="150.0" y2="350.0" stroke="#000" stroke-width="1"/>
<line x1="193.3" y1="275.0" x2="150.0" y2="300.0" stroke="#000" stroke-width="1"/>
<line x1="150.0" y1="350.0" x2="150.0" y2="300.0" stroke="#000" stroke-width="1"/>
<text x="150.0" y="390.0" font-size="14" text-anchor="middle" fill="#111">Tetragonal I</text>
<line x1="450.0" y1="300.0" x2="450.0" y2="250.0" stroke="#000" stroke-width="1"/>
<line x1="450.0" y1="300.0" x2="406.7" y2="325.0" stroke="#000" stroke-width="1"/>
<line x1="450.0" y1="300.0" x2="493.3" y2="325.0" stroke="#000" stroke-width="1"/>
<line x1="450.0" y1="250.0" x2="406.7" y2="275.0" stroke="#000" stroke-width="1"/>
<line x1="450.0" y1="250.0" x2="493.3" y2="275.0" stroke="#000" stroke-width="1"/>
<line x1="406.7" y1="325.0" x2="406.7" y2="275.0" stroke="#000" stroke-width="1"/>
<line x1="406.7" y1="325.0" x2="450.0" y2="350.0" stroke="#000" stroke-width="1"/>
<line x1="406.7" y1="275.0" x2="450.0" y2="300.0" stroke="#000" stroke-width="1"/>
<line x1="493.3" y1="325.0" x2="493.3" y2="275.0" stroke="#000" stroke-width="1"/>
<line x1="493.3" y1="325.0" x2="450.0" y2="350.0" stroke="#000" stroke-width="1"/>
<line x1="493.3" y1="275.0" x2="450.0" y2="300.0" stroke="#000" stroke-width="1"/>
<line x1="450.0" y1="350.0" x2="450.0" y2="300.0" stroke="#000" stroke-width="1"/>
<text x="450.0" y="390.0" font-size="14" text-anchor="middle" fill="#111">Orthorhombic P</text>
<line x1="750.0" y1="300.0" x2="750.0" y2="250.0" stroke="#000" stroke-width="1"/>
<line x1="750.0" y1="300.0" x2="706.7" y2="325.0" stroke="#000" stroke-width="1"/>
<line x1="750.0" y1="300.0" x2="793.3" y2="325.0" stroke="#000" stroke-width="1"/>
<line x1="750.0" y1="250.0" x2="706.7" y2="275.0" stroke="#000" stroke-width="1"/>
<line x1="750.0" y1="250.0" x2="793.3" y2="275.0" stroke="#000" stroke-width="1"/>
<line x1="706.7" y1="325.0" x2="706.7" y2="275.0" stroke="#000" stroke-width="1"/>
<line x1="706.7" y1="325.0" x2="750.0" y2="350.0" stroke="#000" stroke-width="1"/>
<line x1="706.7" y1="275.0" x2="750.0" y2="300.0" stroke="#000" stroke-width="1"/>
<line x1="793.3" y1="325.0" x2="793.3" y2="275.0" stroke="#000" stroke-width="1"/>
<line x1="793.3" y1="325.0" x2="750.0" y2="350.0" stroke="#000" stroke-width="1"/>
<line x1="793.3" y1="275.0" x2="750.0" y2="300.0" stroke="#000" stroke-width="1"/>
<line x1="750.0" y1="350.0" x2="750.0" y2="300.0" stroke="#000" stroke-width="1"/>
<text x="750.0" y="390.0" font-size="14" text-anchor="middle" fill="#111">Orthorhombic C</text>
<line x1="1050.0" y1="300.0" x2="1050.0" y2="250.0" stroke="#000" stroke-width="1"/>
<line x1="1050.0" y1="300.0" x2="1006.7" y2="325.0" stroke="#000" stroke-width="1"/>
<line x1="1050.0" y1="300.0" x2="1093.3" y2="325.0" stroke="#000" stroke-width="1"/>
<line x1="1050.0" y1="250.0" x2="1006.7" y2="275.0" stroke="#000" stroke-width="1"/>
<line x1="1050.0" y1="250.0" x2="1093.3" y2="275.0" stroke="#000" stroke-width="1"/>
<line x1="1006.7" y1="325.0" x2="1006.7" y2="275.0" stroke="#000" stroke-width="1"/>
<line x1="1006.7" y1="325.0" x2="1050.0" y2="350.0" stroke="#000" stroke-width="1"/>
<line x1="1006.7" y1="275.0" x2="1050.0" y2="300.0" stroke="#000" stroke-width="1"/>
<line x1="1093.3" y1="325.0" x2="1093.3" y2="275.0" stroke="#000" stroke-width="1"/>
<line x1="1093.3" y1="325.0" x2="1050.0" y2="350.0" stroke="#000" stroke-width="1"/>
<line x1="1093.3" y1="275.0" x2="1050.0" y2="300.0" stroke="#000" stroke-width="1"/>
<line x1="1050.0" y1="350.0" x2="1050.0" y2="300.0" stroke="#000" stroke-width="1"/>
<text x="1050.0" y="390.0" font-size="14" text-anchor="middle" fill="#111">Orthorhombic I</text>
<line x1="150.0" y1="500.0" x2="150.0" y2="450.0" stroke="#000" stroke-width="1"/>
<line x1="150.0" y1="500.0" x2="106.7" y2="525.0" stroke="#000" stroke-width="1"/>
<line x1="150.0" y1="500.0" x2="193.3" y2="525.0" stroke="#000" stroke-width="1"/>
<line x1="150.0" y1="450.0" x2="106.7" y2="475.0" stroke="#000" stroke-width="1"/>
<line x1="150.0" y1="450.0" x2="193.3" y2="475.0" stroke="#000" stroke-width="1"/>
<line x1="106.7" y1="525.0" x2="106.7" y2="475.0" stroke="#000" stroke-width="1"/>
<line x1="106.7" y1="525.0" x2="150.0" y2="550.0" stroke="#000" stroke-width="1"/>
<line x1="106.7" y1="475.0" x2="150.0" y2="500.0" stroke="#000" stroke-width="1"/>
<line x1="193.3" y1="525.0" x2="193.3" y2="475.0" stroke="#000" stroke-width="1"/>
<line x1="193.3" y1="525.0" x2="150.0" y2="550.0" stroke="#000" stroke-width="1"/>
<line x1="193.3" y1="475.0" x2="150.0" y2="500.0" stroke="#000" stroke-width="1"/>
<line x1="150.0" y1="550.0" x2="150.0" y2="500.0" stroke="#000" stroke-width="1"/>
<text x="150.0" y="590.0" font-size="14" text-anchor="middle" fill="#111">Orthorhombic F</text>
<line x1="450.0" y1="500.0" x2="450.0" y2="450.0" stroke="#000" stroke-width="1"/>
<line x1="450.0" y1="500.0" x2="406.7" y2="525.0" stroke="#000" stroke-width="1"/>
<line x1="450.0" y1="500.0" x2="493.3" y2="525.0" stroke="#000" stroke-width="1"/>
<line x1="450.0" y1="450.0" x2="406.7" y2="475.0" stroke="#000" stroke-width="1"/>
<line x1="450.0" y1="450.0" x2="493.3" y2="475.0" stroke="#000" stroke-width="1"/>
<line x1="406.7" y1="525.0" x2="406.7" y2="475.0" stroke="#000" stroke-width="1"/>
<line x1="406.7" y1="525.0" x2="450.0" y2="550.0" stroke="#000" stroke-width="1"/>
<line x1="406.7" y1="475.0" x2="450.0" y2="500.0" stroke="#000" stroke-width="1"/>
<line x1="493.3" y1="525.0" x2="493.3" y2="475.0" stroke="#000" stroke-width="1"/>
<line x1="493.3" y1="525.0" x2="450.0" y2="550.0" stroke="#000" stroke-width="1"/>
<line x1="493.3" y1="475.0" x2="450.0" y2="500.0" stroke="#000" stroke-width="1"/>
<line x1="450.0" y1="550.0" x2="450.0" y2="500.0" stroke="#000" stroke-width="1"/>
<text x="450.0" y="590.0" font-size="14" text-anchor="middle" fill="#111">Hexagonal</text>
<line x1="750.0" y1="500.0" x2="750.0" y2="450.0" stroke="#000" stroke-width="1"/>
<line x1="750.0" y1="500.0" x2="706.7" y2="525.0" stroke="#000" stroke-width="1"/>
<line x1="750.0" y1="500.0" x2="793.3" y2="525.0" stroke="#000" stroke-width="1"/>
<line x1="750.0" y1="450.0" x2="706.7" y2="475.0" stroke="#000" stroke-width="1"/>
<line x1="750.0" y1="450.0" x2="793.3" y2="475.0" stroke="#000" stroke-width="1"/>
<line x1="706.7" y1="525.0" x2="706.7" y2="475.0" stroke="#000" stroke-width="1"/>
<line x1="706.7" y1="525.0" x2="750.0" y2="550.0" stroke="#000" stroke-width="1"/>
<line x1="706.7" y1="475.0" x2="750.0" y2="500.0" stroke="#000" stroke-width="1"/>
<line x1="793.3" y1="525.0" x2="793.3" y2="475.0" stroke="#000" stroke-width="1"/>
<line x1="793.3" y1="525.0" x2="750.0" y2="550.0" stroke="#000" stroke-width="1"/>
<line x1="793.3" y1="475.0" x2="750.0" y2="500.0" stroke="#000" stroke-width="1"/>
<line x1="750.0" y1="550.0" x2="750.0" y2="500.0" stroke="#000" stroke-width="1"/>
<text x="750.0" y="590.0" font-size="14" text-anchor="middle" fill="#111">Rhombohedral</text>
<line x1="1050.0" y1="500.0" x2="1050.0" y2="450.0" stroke="#000" stroke-width="1"/>
<line x1="1050.0" y1="500.0" x2="1006.7" y2="525.0" stroke="#000" stroke-width="1"/>
<line x1="1050.0" y1="500.0" x2="1093.3" y2="525.0" stroke="#000" stroke-width="1"/>
<line x1="1050.0" y1="450.0" x2="1006.7" y2="475.0" stroke="#000" stroke-width="1"/>
<line x1="1050.0" y1="450.0" x2="1093.3" y2="475.0" stroke="#000" stroke-width="1"/>
<line x1="1006.7" y1="525.0" x2="1006.7" y2="475.0" stroke="#000" stroke-width="1"/>
<line x1="1006.7" y1="525.0" x2="1050.0" y2="550.0" stroke="#000" stroke-width="1"/>
<line x1="1006.7" y1="475.0" x2="1050.0" y2="500.0" stroke="#000" stroke-width="1"/>
<line x1="1093.3" y1="525.0" x2="1093.3" y2="475.0" stroke="#000" stroke-width="1"/>
<line x1="1093.3" y1="525.0" x2="1050.0" y2="550.0" stroke="#000" stroke-width="1"/>
<line x1="1093.3" y1="475.0" x2="1050.0" y2="500.0" stroke="#000" stroke-width="1"/>
<line x1="1050.0" y1="550.0" x2="1050.0" y2="500.0" stroke="#000" stroke-width="1"/>
<text x="1050.0" y="590.0" font-size="14" text-anchor="middle" fill="#111">Monoclinic P</text>
<line x1="150.0" y1="700.0" x2="150.0" y2="650.0" stroke="#000" stroke-width="1"/>
<line x1="150.0" y1="700.0" x2="106.7" y2="725.0" stroke="#000" stroke-width="1"/>
<line x1="150.0" y1="700.0" x2="193.3" y2="725.0" stroke="#000" stroke-width="1"/>
<line x1="150.0" y1="650.0" x2="106.7" y2="675.0" stroke="#000" stroke-width="1"/>
<line x1="150.0" y1="650.0" x2="193.3" y2="675.0" stroke="#000" stroke-width="1"/>
<line x1="106.7" y1="725.0" x2="106.7" y2="675.0" stroke="#000" stroke-width="1"/>
<line x1="106.7" y1="725.0" x2="150.0" y2="750.0" stroke="#000" stroke-width="1"/>
<line x1="106.7" y1="675.0" x2="150.0" y2="700.0" stroke="#000" stroke-width="1"/>
<line x1="193.3" y1="725.0" x2="193.3" y2="675.0" stroke="#000" stroke-width="1"/>
<line x1="193.3" y1="725.0" x2="150.0" y2="750.0" stroke="#000" stroke-width="1"/>
<line x1="193.3" y1="675.0" x2="150.0" y2="700.0" stroke="#000" stroke-width="1"/>
<line x1="150.0" y1="750.0" x2="150.0" y2="700.0" stroke="#000" stroke-width="1"/>
<text x="150.0" y="790.0" font-size="14" text-anchor="middle" fill="#111">Monoclinic C</text>
<line x1="450.0" y1="700.0" x2="450.0" y2="650.0" stroke="#000" stroke-width="1"/>
<line x1="450.0" y1="700.0" x2="406.7" y2="725.0" stroke="#000" stroke-width="1"/>
<line x1="450.0" y1="700.0" x2="493.3" y2="725.0" stroke="#000" stroke-width="1"/>
<line x1="450.0" y1="650.0" x2="406.7" y2="675.0" stroke="#000" stroke-width="1"/>
<line x1="450.0" y1="650.0" x2="493.3" y2="675.0" stroke="#000" stroke-width="1"/>
<line x1="406.7" y1="725.0" x2="406.7" y2="675.0" stroke="#000" stroke-width="1"/>
<line x1="406.7" y1="725.0" x2="450.0" y2="750.0" stroke="#000" stroke-width="1"/>
<line x1="406.7" y1="675.0" x2="450.0" y2="700.0" stroke="#000" stroke-width="1"/>
<line x1="493.3" y1="725.0" x2="493.3" y2="675.0" stroke="#000" stroke-width="1"/>
<line x1="493.3" y1="725.0" x2="450.0" y2="750.0" stroke="#000" stroke-width="1"/>
<line x1="493.3" y1="675.0" x2="450.0" y2="700.0" stroke="#000" stroke-width="1"/>
<line x1="450.0" y1="750.0" x2="450.0" y2="700.0" stroke="#000" stroke-width="1"/>
<text x="450.0" y="790.0" font-size="14" text-anchor="middle" fill="#111">Triclinic</text>
</svg>