<?xml version="1.0" encoding="UTF-8"?>
<svg width="1200" height="360" viewBox="0 0 1200 360" xmlns="http://www.w3.org/2000/svg">
  <defs>
    <style>
      .black { fill: none; stroke: #000; }
      .black-fill { fill: #000; }
      .orange-fill { fill: #FF6A00; }
    </style>
  </defs>
  <!-- Mark group -->
  <g transform="translate(0,0)">
    <circle cx="140" cy="180.0" r="110" class="black" stroke-width="18"/>
    <line x1="140" y1="180.0" x2="60.33" y2="134.00" class="black" stroke-width="16.2"/>
    <line x1="140" y1="180.0" x2="219.67" y2="226.00" class="black" stroke-width="16.2"/>
    <polyline points="140.00,180.00 143.58,184.35 146.87,188.22 149.65,191.19 151.71,192.93 152.94,193.21 153.29,191.98 152.81,189.30 151.62,185.41 149.93,180.63 147.97,175.40 146.01,170.18 144.33,165.43 143.17,161.57 142.71,158.94 143.09,157.75 144.33,158.05 146.39,159.78 149.15,162.72 152.41,166.53 155.93,170.80 159.45,175.06 162.70,178.84 165.44,181.74 167.48,183.43 168.69,183.70 169.05,182.48 168.60,179.85 167.45,176.03 165.81,171.34 163.90,166.20 162.00,161.07 160.38,156.41 159.25,152.62 158.82,150.04 159.20,148.86 160.43,149.15 162.47,150.84 165.19,153.71 168.40,157.43 171.87,161.60 175.33,165.76 178.53,169.46 181.23,172.29 183.24,173.93 184.45,174.19 184.82,172.98 184.39,170.40 183.28,166.64 181.69,162.04 179.84,157.00 177.99,151.97 176.42,147.39 175.33,143.68 174.93,141.14 175.32,139.97 176.54,140.24 178.55,141.89 181.23,144.69 184.39,148.33 187.80,152.40 191.21,156.46 194.36,160.07 197.02,162.84 199.00,164.44 200.20,164.68 200.58,163.49 200.18,160.95 199.11,157.26 197.56,152.74 195.77,147.80 193.99,142.86 192.46,138.38 191.41,134.73 191.03,132.23 191.43,131.08 192.64,131.34 194.63,132.94 197.27,135.67 200.38,139.22 203.74,143.20 207.09,147.17 210.19,150.69 212.81,153.38 214.77,154.94 215.96,155.16 216.34,153.99 215.96,151.49 214.94,147.88 213.44,143.45 211.71,138.60 209.98,133.76 208.50,129.36 207.49,125.78 207.14,123.33 207.55,122.19 208.75,122.44 210.71,123.99 213.31,126.66 216.37,130.12 219.67,134.00" class="black" stroke-width="12.6" fill="none"/>
    <circle cx="140" cy="180.0" r="20" class="orange-fill"/>
  </g>

  <!-- Wordmark -->
  <g transform="translate(320,0)">
    <text x="0" y="170.0" font-family="Inter, system-ui, -apple-system, Segoe UI, Roboto, Helvetica, Arial, sans-serif" font-size="104" font-weight="800" fill="#000">Open Physics Notes</text>
    <rect x="0" y="198.0" width="520" height="14" class="orange-fill"/>
  </g>
</svg>
